<svg width="15" height="15" viewBox="0 0 15 15" fill="none" xmlns="http://www.w3.org/2000/svg">
<path d="M14.81 0.366997C14.665 0.252997 14.47 0.226997 14.3 0.301997L0.799999 6.201C0.445999 6.343 0.396999 6.868 0.718999 7.073L4 9.301V13.535C3.986 13.988 4.603 14.214 4.884 13.855L7.2 11.083C7.229 11.121 7.257 11.16 7.298 11.19L11.824 14.481C12.108 14.7 12.558 14.519 12.61 14.165L14.992 0.847997C15.024 0.665997 14.954 0.481997 14.809 0.367997L14.81 0.366997ZM11.603 2.571L4.472 8.413L2.031 6.755L11.603 2.571ZM5 9.272L12.634 3.019L5 12.157V9.272ZM11.767 13.203L7.886 10.382C7.864 10.366 7.838 10.361 7.814 10.349L13.493 3.55L11.766 13.203H11.767Z" fill="white"/>
</svg>
